<svg xmlns="http://www.w3.org/2000/svg" viewBox="0 0 512 512">
  <defs>
    <linearGradient id="bg" x1="0" y1="0" x2="1" y2="1">
      <stop offset="0" stop-color="#101b2d"/>
      <stop offset="1" stop-color="#050a12"/>
    </linearGradient>
    <linearGradient id="accent" x1="0" y1="0" x2="1" y2="1">
      <stop offset="0" stop-color="#7cc4ff"/>
      <stop offset="1" stop-color="#57d763"/>
    </linearGradient>
  </defs>
  <rect width="512" height="512" rx="112" fill="url(#bg)"/>
  <circle cx="256" cy="256" r="178" fill="none" stroke="rgba(255,255,255,0.12)" stroke-width="18"/>
  <path d="M171 289c35 64 123 88 184 20 53-58 35-151-37-181-54-23-126 3-153 60-15 32-12 69 6 101Z" fill="url(#accent)"/>
  <path d="M283 102c25-32 63-43 101-31-17 38-47 58-91 57-9-7-12-15-10-26Z" fill="#57d763"/>
  <path d="M213 247l32 34 69-82" fill="none" stroke="#fff" stroke-width="34" stroke-linecap="round" stroke-linejoin="round"/>
</svg>
